<svg width="80" height="50" viewBox="0 0 80 50" fill="none" xmlns="http://www.w3.org/2000/svg">
<path d="M24.6931 26.7899L25.4707 28.4574L17.7387 32.0628L16.9612 30.3954L24.6931 26.7899ZM10.9314 16.4108L18.1423 31.8746L16.0925 32.8305L8.88159 17.3666L10.9314 16.4108Z" fill="#FF0000"/>
<path d="M32.7573 31.9932C31.9572 32.3663 31.1687 32.5702 30.3918 32.6049C29.6187 32.6292 28.8829 32.5025 28.1845 32.2248C27.4931 31.9437 26.8651 31.5211 26.3003 30.957C25.7355 30.3928 25.2649 29.7071 24.8885 28.8999L24.6805 28.4539C24.2447 27.5192 23.9948 26.6229 23.9309 25.7648C23.8636 24.8997 23.9484 24.1016 24.185 23.3706C24.4217 22.6396 24.7799 22.0028 25.2596 21.4601C25.7392 20.9175 26.3013 20.496 26.9456 20.1955C27.7669 19.8125 28.541 19.624 29.2678 19.6298C30.0018 19.6324 30.6787 19.7995 31.2988 20.131C31.9156 20.4554 32.4762 20.9181 32.9805 21.519C33.4816 22.1129 33.9203 22.8135 34.2967 23.6206L34.7078 24.5022L26.1262 28.5038L25.3783 26.9001L31.9951 23.8147L31.9257 23.666C31.6597 23.1694 31.3224 22.7233 30.9138 22.3276C30.5122 21.9287 30.0441 21.6643 29.5094 21.5343C28.9747 21.4044 28.371 21.4962 27.6984 21.8099C27.2523 22.0179 26.8862 22.305 26.6001 22.6711C26.3107 23.0302 26.1173 23.4566 26.0199 23.9502C25.9225 24.4439 25.9233 24.9909 26.0222 25.5913C26.1212 26.1917 26.3324 26.8388 26.656 27.5327L26.864 27.9788C27.1182 28.524 27.4319 29.0026 27.8052 29.4148C28.1821 29.8165 28.6 30.1303 29.0587 30.356C29.5244 30.5784 30.0141 30.6949 30.5276 30.7055C31.0482 30.7127 31.5775 30.5908 32.1156 30.3399C32.8095 30.0164 33.3312 29.6007 33.6806 29.093C34.03 28.5852 34.2746 28.01 34.4145 27.3672L36.0448 27.7577C35.972 28.2486 35.8237 28.7531 35.5998 29.2712C35.3759 29.7894 35.0338 30.2851 34.5735 30.7583C34.1203 31.2283 33.5149 31.6399 32.7573 31.9932Z" fill="#FF7A00"/>
<path d="M44.155 32.4909L41.3964 26.5751C41.1851 26.1219 40.9098 25.7719 40.5705 25.5249C40.235 25.2676 39.8438 25.1311 39.3969 25.1154C38.9499 25.0997 38.4609 25.2156 37.9299 25.4633C37.4342 25.6944 37.0384 25.9824 36.7424 26.3273C36.4534 26.6689 36.2671 27.0274 36.1835 27.4025C36.1069 27.7744 36.1429 28.1197 36.2915 28.4383L34.3266 29.3545C34.1351 28.9439 34.0515 28.4872 34.0757 27.9846C34.0999 27.4819 34.2344 26.9753 34.479 26.4647C34.7274 25.9437 35.0867 25.4572 35.5569 25.0052C36.0309 24.5428 36.6149 24.1499 37.3088 23.8263C38.1443 23.4367 38.9467 23.2349 39.716 23.221C40.4924 23.2038 41.1949 23.3977 41.8234 23.8028C42.4557 24.1976 42.9716 24.8233 43.3712 25.6801L45.8672 31.033C46.0455 31.4153 46.2672 31.8076 46.5324 32.2098C46.8046 32.6087 47.0806 32.9325 47.3604 33.1813L47.4396 33.3513L45.3898 34.3071C45.185 34.1268 44.9668 33.8622 44.7352 33.5133C44.5003 33.1574 44.3069 32.8166 44.155 32.4909ZM42.1622 27.33L42.8273 28.7008L40.8412 29.6269C40.2818 29.8877 39.8041 30.1665 39.408 30.4633C39.0087 30.753 38.7015 31.0556 38.4867 31.3713C38.2719 31.687 38.1493 32.0157 38.119 32.3574C38.0854 32.692 38.1511 33.0363 38.3162 33.3904C38.4846 33.7515 38.7195 34.0427 39.0211 34.2642C39.3226 34.4856 39.6775 34.6089 40.0857 34.634C40.4978 34.6488 40.9445 34.5439 41.426 34.3194C42.0278 34.0388 42.4994 33.6637 42.8408 33.1942C43.1822 32.7247 43.4015 32.2431 43.4989 31.7494C43.6034 31.2525 43.5853 30.8256 43.4448 30.4687L44.7246 31.0227C44.8137 31.3432 44.8327 31.7352 44.7816 32.1986C44.7305 32.6621 44.5984 33.1461 44.3854 33.6505C44.1762 34.1446 43.8714 34.6186 43.471 35.0726C43.0745 35.5161 42.5646 35.8831 41.9415 36.1737C41.1627 36.5369 40.4084 36.7033 39.6788 36.6728C38.9562 36.6391 38.3132 36.4433 37.7498 36.0854C37.1901 35.7171 36.7617 35.2143 36.4645 34.5771C36.1773 33.961 36.0451 33.3633 36.0679 32.7837C36.0874 32.197 36.2511 31.6423 36.559 31.1194C36.8636 30.5895 37.2965 30.0945 37.8578 29.6345C38.4192 29.1745 39.0928 28.7613 39.8787 28.3948L42.1622 27.33Z" fill="#00FF0A"/>
<path d="M47.8203 23.8125V34.5H45.6523V21.8203H47.7617L47.8203 23.8125ZM51.7812 21.75L51.7695 23.7656C51.5898 23.7266 51.418 23.7031 51.2539 23.6953C51.0977 23.6797 50.918 23.6719 50.7148 23.6719C50.2148 23.6719 49.7734 23.75 49.3906 23.9062C49.0078 24.0625 48.6836 24.2812 48.418 24.5625C48.1523 24.8438 47.9414 25.1797 47.7852 25.5703C47.6367 25.9531 47.5391 26.375 47.4922 26.8359L46.8828 27.1875C46.8828 26.4219 46.957 25.7031 47.1055 25.0312C47.2617 24.3594 47.5 23.7656 47.8203 23.25C48.1406 22.7266 48.5469 22.3203 49.0391 22.0312C49.5391 21.7344 50.1328 21.5859 50.8203 21.5859C50.9766 21.5859 51.1562 21.6055 51.3594 21.6445C51.5625 21.6758 51.7031 21.7109 51.7812 21.75Z" fill="#00F0FF"/>
<path d="M65.3633 32.6953H63.1836C63.1914 31.9453 63.2578 31.332 63.3828 30.8555C63.5156 30.3711 63.7305 29.9297 64.0273 29.5312C64.3242 29.1328 64.7188 28.6797 65.2109 28.1719C65.5703 27.8047 65.8984 27.4609 66.1953 27.1406C66.5 26.8125 66.7461 26.4609 66.9336 26.0859C67.1211 25.7031 67.2148 25.2461 67.2148 24.7148C67.2148 24.1758 67.1172 23.7109 66.9219 23.3203C66.7344 22.9297 66.4531 22.6289 66.0781 22.418C65.7109 22.207 65.2539 22.1016 64.707 22.1016C64.2539 22.1016 63.8242 22.1836 63.418 22.3477C63.0117 22.5117 62.6836 22.7656 62.4336 23.1094C62.1836 23.4453 62.0547 23.8867 62.0469 24.4336H59.8789C59.8945 23.5508 60.1133 22.793 60.5352 22.1602C60.9648 21.5273 61.543 21.043 62.2695 20.707C62.9961 20.3711 63.8086 20.2031 64.707 20.2031C65.6992 20.2031 66.543 20.3828 67.2383 20.7422C67.9414 21.1016 68.4766 21.6172 68.8438 22.2891C69.2109 22.9531 69.3945 23.7422 69.3945 24.6562C69.3945 25.3594 69.25 26.0078 68.9609 26.6016C68.6797 27.1875 68.3164 27.7383 67.8711 28.2539C67.4258 28.7695 66.9531 29.2617 66.4531 29.7305C66.0234 30.1289 65.7344 30.5781 65.5859 31.0781C65.4375 31.5781 65.3633 32.1172 65.3633 32.6953ZM63.0898 36.4102C63.0898 36.0586 63.1992 35.7617 63.418 35.5195C63.6367 35.2773 63.9531 35.1562 64.3672 35.1562C64.7891 35.1562 65.1094 35.2773 65.3281 35.5195C65.5469 35.7617 65.6562 36.0586 65.6562 36.4102C65.6562 36.7461 65.5469 37.0352 65.3281 37.2773C65.1094 37.5195 64.7891 37.6406 64.3672 37.6406C63.9531 37.6406 63.6367 37.5195 63.418 37.2773C63.1992 37.0352 63.0898 36.7461 63.0898 36.4102Z" fill="black"/>
<path d="M53.8203 14.0273V24H51.6523V11.3203H53.7031L53.8203 14.0273ZM53.3047 17.1797L52.4023 17.1445C52.4102 16.2773 52.5391 15.4766 52.7891 14.7422C53.0391 14 53.3906 13.3555 53.8438 12.8086C54.2969 12.2617 54.8359 11.8398 55.4609 11.543C56.0938 11.2383 56.793 11.0859 57.5586 11.0859C58.1836 11.0859 58.7461 11.1719 59.2461 11.3438C59.7461 11.5078 60.1719 11.7734 60.5234 12.1406C60.8828 12.5078 61.1562 12.9844 61.3438 13.5703C61.5312 14.1484 61.625 14.8555 61.625 15.6914V24H59.4453V15.668C59.4453 15.0039 59.3477 14.4727 59.1523 14.0742C58.957 13.668 58.6719 13.375 58.2969 13.1953C57.9219 13.0078 57.4609 12.9141 56.9141 12.9141C56.375 12.9141 55.8828 13.0273 55.4375 13.2539C55 13.4805 54.6211 13.793 54.3008 14.1914C53.9883 14.5898 53.7422 15.0469 53.5625 15.5625C53.3906 16.0703 53.3047 16.6094 53.3047 17.1797Z" fill="#1500FF"/>
<path d="M46 34L51.1429 38.5217V47H64V38.5217" stroke="black" stroke-width="2"/>
</svg>
